<?xml version="1.0" encoding="UTF-8"?>
<svg id="Layer_1" data-name="Layer 1" xmlns="http://www.w3.org/2000/svg" viewBox="0 0 919.96 300">
  <defs>
    <style>
      .cls-1 {
        fill: #fff;
        stroke-width: 0px;
      }
    </style>
  </defs>
  <g id="Group_4868" data-name="Group 4868">
    <g id="Group_4864" data-name="Group 4864">
      <path id="Path_73401" data-name="Path 73401" class="cls-1" d="m373.34,211.29l46.57-56.48c1.54-1.99,2.41-4.42,2.48-6.94v-15.85c.02-4.9-3.94-8.9-8.84-8.92-.03,0-.05,0-.08,0h-81.99c-4.9-.02-8.9,3.94-8.92,8.84,0,.03,0,.05,0,.08v19.81c-.02,4.9,3.94,8.9,8.84,8.92.03,0,.05,0,.08,0h37.65l-46.07,56.23c-1.65,1.93-2.53,4.4-2.48,6.94v15.85c-.13,4.79,3.64,8.78,8.43,8.91.08,0,.16,0,.24,0h86.45c4.9.02,8.9-3.94,8.92-8.84,0-.03,0-.05,0-.08v-19.81c-.09-4.85-4.07-8.72-8.92-8.67h-42.36Zm163.74-88.19c-4.85.09-8.72,4.07-8.67,8.92v58.71c0,14.12-8.42,21.8-20.06,21.8s-20.06-7.18-20.06-21.8v-58.71c.02-4.9-3.94-8.9-8.84-8.92-.03,0-.05,0-.08,0h-22.54c-4.9-.02-8.9,3.94-8.92,8.84,0,.03,0,.05,0,.08v69.61c0,25.51,14.86,50.04,46.07,50.04,16.35,0,27.25-6.19,34.43-14.37v4.71c-.04,3.62,2.83,6.6,6.44,6.69h24.77c4.9.02,8.9-3.94,8.92-8.84,0-.03,0-.05,0-.08v-107.75c.02-4.9-3.94-8.9-8.84-8.92-.03,0-.05,0-.08,0h-22.55Zm133.27-2.97c-16.35,0-27.25,6.19-34.19,14.37v-4.71c.02-3.68-2.95-6.67-6.63-6.69-.02,0-.04,0-.06,0h-24.77c-4.9-.02-8.9,3.94-8.92,8.84,0,.03,0,.05,0,.08v107.75c-.02,4.9,3.94,8.9,8.84,8.92.03,0,.05,0,.08,0h22.54c4.9.02,8.9-3.94,8.92-8.84,0-.03,0-.05,0-.08v-58.7c0-14.12,8.17-21.55,20.06-21.55,11.15,0,20.06,6.94,20.06,21.55v58.7c-.05,4.85,3.82,8.83,8.67,8.92h22.79c4.85-.09,8.72-4.07,8.67-8.92v-69.6c0-25.27-14.61-50.04-46.07-50.04h0Zm161.51,9.66v5.7c-7.43-9.16-18.58-15.35-35.42-15.35-39.14,0-60.19,32.95-60.19,65.89s21.06,65.64,60.19,65.64c16.84,0,27.99-6.19,35.42-15.36v5.7c-.02,3.68,2.95,6.67,6.63,6.69.02,0,.04,0,.06,0h24.77c4.9.02,8.9-3.94,8.92-8.84,0-.03,0-.05,0-.08v-107.75c.02-4.9-3.94-8.9-8.84-8.92-.03,0-.05,0-.08,0h-24.77c-3.68-.02-6.67,2.95-6.69,6.63,0,.02,0,.04,0,.06h0Zm-28.24,82.98c-16.6,0-26.75-11.39-26.75-26.75s10.16-27,26.75-27c15.11,0,27,10.16,27,27,0,16.6-11.89,26.76-27,26.76h0Z"/>
      <g id="Group_4859" data-name="Group 4859">
        <rect id="Rectangle_3405" data-name="Rectangle 3405" class="cls-1" x="223.7" y="138.43" width="42.29" height="110.57" rx="8.37" ry="8.37"/>
        <path id="Path_73373" data-name="Path 73373" class="cls-1" d="m262.55,162.41h-24.16c-5.5,0-12.08.95-14.57,10.93l-.12-40.17c.11-13.19,6.64-14.84,14.69-14.84l63-.51c8.05,0,8.86,8.07,1.18,15.35l-26.18,24.56c-4.02,2.96-8.85,4.59-13.84,4.68Z"/>
      </g>
    </g>
    <circle id="Ellipse_17" data-name="Ellipse 17" class="cls-1" cx="245.06" cy="79.51" r="29.79"/>
    <g>
      <path id="Path_73407" data-name="Path 73407" class="cls-1" d="m90.17,82.89v158.01c0,4.62-3.75,8.37-8.37,8.37h-25.55c-4.62,0-8.37-3.75-8.37-8.37l.22-120.33c-.15-6.1,2.21-11.99,6.53-16.3l23.92-26.14c6.87-5.5,11.62.14,11.62,4.76Z"/>
      <path id="Path_73407-2" data-name="Path 73407-2" class="cls-1" d="m47.74,240.91c.96-21.81,7.73-62.63,38.34-92.66,20.75-20.35,48.36-31.4,82.63-32.85,3.48-.15,11.28-.93,11.34,8.06l-.37,14.5-.23,11.31c-.08,7.76-6.49,7.85-9.97,8.02-22.75,1.07-41.03,8.05-54.08,20.85-18.66,18.31-23.71,45.31-25.04,61.59-.31,3.82-1.08,8.41-7.73,9.53,0,0-20.92-.02-24.6.01s-10.6-1.47-10.29-8.36Z"/>
      <path id="Path_73408" data-name="Path 73408" class="cls-1" d="m137.32,242.23l-17.37-16.79c-3.95-3.82-11.96-12.78-20.69-7.33,18.29-59.08,45.53-29.95,51.32-24.36l45.66,43.42c5.79,5.59.76,11.96-9.82,11.86l-35.9-.54c-4.94-.67-9.56-2.85-13.2-6.25Z"/>
    </g>
  </g>
</svg>